<?xml version="1.0" encoding="UTF-8"?>
<svg id="Layer_1" data-name="Layer 1" xmlns="http://www.w3.org/2000/svg" viewBox="0 0 336.22 206.71">
  <defs>
    <style>
      .cls-1 {
        fill: none;
        stroke: #f1f2f2;
        stroke-miterlimit: 10;
        stroke-width: 2px;
      }
    </style>
  </defs>
  <rect class="cls-1" x="130.02" y="1.56" width="75.18" height="83.86" rx="9.46" ry="9.46"/>
  <rect class="cls-1" x="251.36" y="1.56" width="75.18" height="83.86" rx="9.46" ry="9.46"/>
  <rect class="cls-1" x="130.02" y="121.85" width="75.18" height="83.86" rx="9.46" ry="9.46"/>
  <rect class="cls-1" x="251.36" y="121.85" width="75.18" height="83.86" rx="9.46" ry="9.46"/>
  <line class="cls-1" x1="165.67" y1="85.14" x2="165.67" y2="121.56"/>
  <line class="cls-1" x1="287.08" y1="85.42" x2="287.08" y2="121.85"/>
  <rect class="cls-1" x="8.68" y="1.56" width="75.18" height="83.86" rx="9.46" ry="9.46"/>
  <line class="cls-1" x1="88.02" y1="43.49" x2="129.35" y2="43.49"/>
  <rect class="cls-1" x="8.68" y="121.85" width="75.18" height="83.86" rx="9.46" ry="9.46"/>
  <line class="cls-1" x1="45.11" y1="85.42" x2="45.11" y2="121.85"/>
  <rect class="cls-1" x="251.36" y="1.56" width="83.86" height="83.86" rx="9.46" ry="9.46"/>
  <line class="cls-1" x1="209.72" y1="43.49" x2="251.36" y2="43.49"/>
  <path class="cls-1" d="m213.88,156.86v-25.55c0-5.22-4.23-9.46-9.46-9.46h-64.94c-5.22,0-9.46,4.23-9.46,9.46v64.94c0,5.22,4.23,9.46,9.46,9.46h64.94c5.22,0,9.46-4.23,9.46-9.46v-26.12"/>
  <rect class="cls-1" x="251.36" y="121.85" width="83.86" height="83.86" rx="9.46" ry="9.46"/>
  <line class="cls-1" x1="173.58" y1="85.14" x2="173.58" y2="121.56"/>
  <line class="cls-1" x1="294.86" y1="85.42" x2="294.86" y2="121.85"/>
  <line class="cls-1" x1="52.29" y1="85.42" x2="52.29" y2="121.85"/>
  <line class="cls-1" x1="88.02" y1="163.78" x2="130.02" y2="163.78"/>
  <line class="cls-1" x1="209.72" y1="163.78" x2="251.36" y2="163.78"/>
  <path class="cls-1" d="m92.54,156.86v-25.55c0-5.22-4.23-9.46-9.46-9.46H18.14c-5.22,0-9.46,4.23-9.46,9.46v64.94c0,5.22,4.23,9.46,9.46,9.46h64.94c5.22,0,9.46-4.23,9.46-9.46v-26.12"/>
  <path class="cls-1" d="m92.54,36.58V11.02c0-5.22-4.23-9.46-9.46-9.46H18.14c-5.22,0-9.46,4.23-9.46,9.46v64.94c0,5.22,4.23,9.46,9.46,9.46h64.94c5.22,0,9.46-4.23,9.46-9.46v-26.12"/>
  <path class="cls-1" d="m213.88,36.01V10.46c0-5.22-4.23-9.46-9.46-9.46h-64.94c-5.22,0-9.46,4.23-9.46,9.46v64.94c0,5.22,4.23,9.46,9.46,9.46h64.94c5.22,0,9.46-4.23,9.46-9.46v-26.12"/>
</svg>