<?xml version="1.0" encoding="UTF-8"?>
<svg id="Layer_1" data-name="Layer 1" xmlns="http://www.w3.org/2000/svg" viewBox="0 0 344.11 277.34">
  <defs>
    <style>
      .cls-1 {
        fill: none;
        stroke: #f1f2f2;
        stroke-miterlimit: 10;
        stroke-width: 3px;
      }
    </style>
  </defs>
  <path class="cls-1" d="m23.59,1.5h296.93c12.2,0,22.09,9.41,22.09,21.01v191.01c0,11.6-9.89,21.01-22.09,21.01H23.59c-12.2,0-22.09-9.41-22.09-21.01V22.51C1.5,10.91,11.39,1.5,23.59,1.5Z"/>
  <path class="cls-1" d="m260.01,138.98l3.15,5.25c.87,1.45,2.81,2.03,4.44,1.33l3.87-1.65c1.76-.75,2.48-2.69,1.59-4.26l-2.89-5.14c-.94-1.66-.08-3.69,1.83-4.35l8.21-2.84c2.46-.85,2.99-3.8.96-5.33l-32.24-24.24c-2.23-1.68-5.59-.23-5.59,2.41v39.12c0,2.51,3.07,3.99,5.34,2.59l6.4-3.97c1.66-1.04,3.95-.54,4.92,1.08Z"/>
  <path class="cls-1" d="m35.35,22.16h273c6.87,0,12.43,5.29,12.43,11.83v143.51c0,6.53-5.57,11.83-12.43,11.83H35.35c-6.87,0-12.43-5.29-12.43-11.83V33.99c0-6.53,5.57-11.83,12.43-11.83Z"/>
  <path class="cls-1" d="m149.55,234.53v11.41c0,5.51-4.69,9.96-10.48,9.96h-3.3c-5.72,0-10.39,4.37-10.48,9.81h0c-.09,5.56,4.63,10.13,10.48,10.13h72.17c5.72,0,10.39-4.37,10.48-9.81h0c.09-5.56-4.63-10.13-10.48-10.13h-2.98c-5.79,0-10.48-4.46-10.48-9.96v-11.41"/>
</svg>