<?xml version="1.0" encoding="UTF-8"?>
<svg id="Layer_1" data-name="Layer 1" xmlns="http://www.w3.org/2000/svg" viewBox="0 0 240.28 210.66">
  <defs>
    <style>
      .cls-1 {
        fill: #B15F87;
        stroke-width: 0px;
      }
    </style>
  </defs>
  <path class="cls-1" d="m208.67,210.51l-83.48.12c-5.71,0-10.36-4.61-10.38-10.32l-.2-46.05c-.03-5.71-4.66-10.32-10.36-10.32h-23.89c-5.73-.01-10.37,4.63-10.37,10.36v45.99c0,5.72-4.64,10.36-10.36,10.37h-27.18c-5.73.02-10.37-4.63-10.37-10.35v-76.8c0-5.67-4.55-10.3-10.23-10.37l-1.61-.02C4.56,113.03,0,108.41,0,102.74v-.74c0-3.07,1.36-5.98,3.71-7.95L113.11,2.42c3.85-3.22,9.45-3.23,13.31,0l110.15,92.05c2.36,1.97,3.72,4.88,3.72,7.96h0c0,5.76-4.7,10.42-10.46,10.37h-.41c-5.76-.05-10.46,4.61-10.46,10.37l.07,76.98c0,5.72-4.63,10.37-10.35,10.38Z"/>
</svg>